HIERARCHY
ROOT SpineBase
{
  OFFSET 0.000000 0.000000 0.000000
  CHANNELS 6 Xposition Yposition Zposition Zrotation Xrotation Yrotation
  JOINT SpineMid
  {
    OFFSET 0.000000 30.551956 0.000000
    CHANNELS 3 Zrotation Xrotation Yrotation
    JOINT SpineShoulder
    {
      OFFSET -0.146378 22.744543 -0.720003
      CHANNELS 3 Zrotation Xrotation Yrotation
      JOINT Neck
      {
        OFFSET -0.098543 7.528131 -0.549297
        CHANNELS 3 Zrotation Xrotation Yrotation
        JOINT Head
        {
          OFFSET 1.828185 11.799413 0.166455
          CHANNELS 3 Zrotation Xrotation Yrotation
          End Site
          {
            OFFSET 0 0 0
          }
        }
      }
      JOINT ShoulderLeft
      {
        OFFSET -16.288835 -2.766714 -2.782174
        CHANNELS 3 Zrotation Xrotation Yrotation
        JOINT ElbowLeft
        {
          OFFSET -3.719389 -23.950058 -2.202660
          CHANNELS 3 Zrotation Xrotation Yrotation
          JOINT WristLeft
          {
            OFFSET 0.164874 -20.560795 -6.772212
            CHANNELS 3 Zrotation Xrotation Yrotation
            JOINT HandLeft
            {
              OFFSET 1.265698 -4.243005 -1.379396
              CHANNELS 3 Zrotation Xrotation Yrotation
              JOINT HandTipLeft
              {
                OFFSET -0.074425 -5.784070 -1.896572
                CHANNELS 3 Zrotation Xrotation Yrotation
                End Site
                {
                  OFFSET 0 0 0
                }
              }
              JOINT ThumbLeft
              {
                OFFSET 3.709200 0.287118 -0.519796
                CHANNELS 3 Zrotation Xrotation Yrotation
                End Site
                {
                  OFFSET 0 0 0
                }
              }
            }
          }
        }
      }
      JOINT ShoulderRight
      {
        OFFSET 16.541426 -3.672763 0.746999
        CHANNELS 3 Zrotation Xrotation Yrotation
        JOINT ElbowRight
        {
          OFFSET 2.823742 -26.006176 0.620317
          CHANNELS 3 Zrotation Xrotation Yrotation
          JOINT WristRight
          {
            OFFSET -1.815288 -20.286662 -7.447973
            CHANNELS 3 Zrotation Xrotation Yrotation
            JOINT HandRight
            {
              OFFSET -2.205398 -3.333454 -0.710814
              CHANNELS 3 Zrotation Xrotation Yrotation
              JOINT HandTipRight
              {
                OFFSET 1.040438 -4.960267 -2.132540
                CHANNELS 3 Zrotation Xrotation Yrotation
                End Site
                {
                  OFFSET 0 0 0
                }
              }
              JOINT ThumbRight
              {
                OFFSET 1.987817 -0.633762 -3.606667
                CHANNELS 3 Zrotation Xrotation Yrotation
                End Site
                {
                  OFFSET 0 0 0
                }
              }
            }
          }
        }
      }
    }
  }
  JOINT HipLeft
  {
    OFFSET -7.854550 0.348729 -3.870313
    CHANNELS 3 Zrotation Xrotation Yrotation
    JOINT KneeLeft
    {
      OFFSET -5.949538 -26.529090 -0.526728
      CHANNELS 3 Zrotation Xrotation Yrotation
      JOINT AnkleLeft
      {
        OFFSET -1.576335 -33.600839 0.790734
        CHANNELS 3 Zrotation Xrotation Yrotation
        JOINT FootLeft
        {
          OFFSET -3.826020 -9.816122 -7.985260
          CHANNELS 3 Zrotation Xrotation Yrotation
          End Site
          {
            OFFSET 0 0 0
          }
        }
      }
    }
  }
  JOINT HipRight
  {
    OFFSET 6.848171 1.199223 -3.137109
    CHANNELS 3 Zrotation Xrotation Yrotation
    JOINT KneeRight
    {
      OFFSET 1.981665 -29.391715 5.339591
      CHANNELS 3 Zrotation Xrotation Yrotation
      JOINT AnkleRight
      {
        OFFSET 4.369937 -34.773239 8.039309
        CHANNELS 3 Zrotation Xrotation Yrotation
        JOINT FootRight
        {
          OFFSET 4.721651 -6.593964 -8.574626
          CHANNELS 3 Zrotation Xrotation Yrotation
          End Site
          {
            OFFSET 0 0 0
          }
        }
      }
    }
  }
}
MOTION
Frames: 16
Frame Time: 0.033333
56.945047 70.478231 394.381619 -0.000000 0.000000 -2.854892 -0.000000 0.000000 2.854892 -0.000000 0.000000 0.000000 -0.000000 0.000000 0.000000 0.000000 0.000000 0.000000 -0.000000 0.000000 0.000000 -0.000000 0.000000 0.000000 -0.000000 0.000000 0.000000 -0.000000 0.000000 0.000000 0.000000 0.000000 0.000000 0.000000 0.000000 0.000000 -0.000000 0.000000 0.000000 -0.000000 0.000000 0.000000 -0.000000 0.000000 0.000000 -0.000000 0.000000 0.000000 0.000000 0.000000 0.000000 0.000000 0.000000 0.000000 -0.000000 0.000000 2.854892 -0.000000 0.000000 0.000000 -0.000000 0.000000 0.000000 0.000000 0.000000 0.000000 -0.000000 0.000000 2.854892 -0.000000 0.000000 0.000000 -0.000000 0.000000 0.000000 0.000000 0.000000 0.000000
56.963053 70.516331 394.330905 0.028435 0.091404 -2.802181 -0.023932 -0.092685 2.802139 -0.000000 0.000000 0.000000 -0.000000 0.000000 0.000000 0.000000 0.000000 0.000000 -0.000000 0.000000 0.000000 -0.000000 0.000000 0.000000 1.107132 -3.050513 -1.247804 0.269156 2.402228 0.779082 0.000000 0.000000 0.000000 0.000000 0.000000 0.000000 -0.000000 0.000000 0.000000 -0.000000 0.000000 0.000000 2.057715 -2.413088 1.221188 -2.767430 -0.008887 -1.335049 0.000000 0.000000 0.000000 0.000000 0.000000 0.000000 -0.023932 -0.092685 2.802139 -0.000000 0.000000 0.000000 1.694809 7.549548 -4.232681 0.000000 0.000000 0.000000 -0.023932 -0.092685 2.802139 -0.000000 0.000000 0.000000 -0.171652 -1.025829 -0.519497 0.000000 0.000000 0.000000
56.978412 70.551759 394.294733 0.054549 0.164111 -2.775311 -0.046539 -0.166559 2.775165 -0.000000 0.000000 0.000000 -1.059653 -0.601939 0.102508 0.000000 0.000000 0.000000 -0.000000 0.000000 0.000000 1.146386 -0.310070 -0.377293 0.763262 -5.650778 -1.945000 0.603374 4.585683 1.420462 0.000000 0.000000 0.000000 0.000000 0.000000 0.000000 -0.000000 0.000000 0.000000 -0.000000 0.000000 0.000000 3.909488 -4.453387 2.337783 -5.171875 0.376037 -2.322976 0.000000 0.000000 0.000000 0.000000 0.000000 0.000000 -0.046539 -0.166559 2.775165 -0.000000 0.000000 0.000000 3.402258 13.489912 -7.781770 0.000000 0.000000 0.000000 -0.046539 -0.166559 2.775165 0.484706 0.777464 0.206691 -0.828712 -2.651853 -1.155559 0.000000 0.000000 0.000000
56.991125 70.584516 394.273105 0.078339 0.218092 -2.774174 -0.067692 -0.221628 2.773894 -0.000000 0.000000 0.000000 -1.334748 -0.791598 0.132035 0.000000 0.000000 0.000000 -0.000000 0.000000 0.000000 1.598851 -0.435368 -0.524666 0.756317 -8.216023 -2.690731 1.053119 6.476330 1.905768 0.000000 0.000000 0.000000 0.000000 0.000000 0.000000 -0.248799 -0.929253 -0.108857 0.247065 0.929715 0.104835 5.444134 -6.032392 3.258264 -7.106484 0.954964 -2.968574 0.000000 0.000000 0.000000 0.000000 0.000000 0.000000 -0.067692 -0.221628 2.773894 -0.000000 0.000000 0.000000 4.773134 17.689171 -10.399046 0.000000 0.000000 0.000000 -0.067692 -0.221628 2.773894 0.663512 1.044077 0.278951 -1.161000 -3.569095 -1.539817 0.000000 0.000000 0.000000
57.001191 70.614601 394.266018 0.099802 0.253322 -2.798712 -0.087314 -0.257893 2.798294 -0.000000 0.000000 0.000000 -1.438900 -0.906038 0.149032 0.000000 0.000000 0.000000 -0.000000 0.000000 0.000000 1.970811 -0.539895 -0.645148 0.474351 -10.510654 -3.285022 1.656786 8.013970 2.221783 0.000000 0.000000 0.000000 0.000000 0.000000 0.000000 -0.216458 -1.123170 -0.129238 0.213965 1.123647 0.125018 6.567289 -7.092191 3.901901 -8.499631 1.578850 -3.293376 0.000000 0.000000 0.000000 0.000000 0.000000 0.000000 -0.087314 -0.257893 2.798294 -0.000000 0.000000 0.000000 5.536705 20.202487 -11.902552 0.000000 0.000000 0.000000 -0.087314 -0.257893 2.798294 0.799502 1.227709 0.331096 -1.425110 -4.185229 -1.775022 0.000000 0.000000 0.000000
57.008610 70.642015 394.273475 0.118933 0.269772 -2.848917 -0.105379 -0.275350 2.848384 -0.000000 0.000000 0.000000 -1.371693 -0.944868 0.154172 0.000000 0.000000 0.000000 -0.000000 0.000000 0.000000 2.262317 -0.623116 -0.739137 -0.079316 -12.483524 -3.732893 2.437363 9.153859 2.362531 0.000000 0.000000 0.000000 0.000000 0.000000 0.000000 -0.126174 -1.259333 -0.141120 0.123102 1.259637 0.138380 7.214097 -7.604473 4.211767 -9.312373 2.159299 -3.322967 0.000000 0.000000 0.000000 0.000000 0.000000 0.000000 -0.105379 -0.275350 2.848384 -0.000000 0.000000 0.000000 5.515378 21.089385 -12.165835 0.000000 0.000000 0.000000 -0.105379 -0.275350 2.848384 0.892601 1.327970 0.363532 -1.613713 -4.485398 -1.850350 0.000000 0.000000 0.000000
57.019486 70.669757 394.325441 0.123222 0.260943 -3.026701 -0.109273 -0.267085 3.026166 -0.000000 0.000000 0.000000 -0.860969 -0.807900 0.131113 0.000000 0.000000 0.000000 -0.000000 0.000000 0.000000 2.632994 -0.716783 -0.858264 -2.018042 -16.075315 -4.424551 3.141412 11.640564 3.002824 0.000000 0.000000 0.000000 0.000000 0.000000 0.000000 0.059851 -1.327115 -0.141936 -0.063155 1.326962 0.143361 7.805421 -8.807464 5.083315 -9.823054 5.112116 -3.440208 0.000000 0.000000 0.000000 0.000000 0.000000 0.000000 -0.109273 -0.267085 3.026166 -0.000000 0.000000 0.000000 4.511757 20.996209 -11.224535 0.000000 0.000000 0.000000 -0.109273 -0.267085 3.026166 1.020489 1.078440 0.362244 -1.331763 -4.905434 -2.896163 0.000000 0.000000 0.000000
57.026653 70.697093 394.355938 0.131552 0.228741 -3.088490 -0.119037 -0.235496 3.087983 -0.000000 0.000000 0.000000 -0.398589 -0.741092 0.117818 0.000000 0.000000 0.000000 -0.000000 0.000000 0.000000 2.763566 -0.797078 -0.899459 -2.824034 -15.182364 -3.976345 4.432981 10.822448 2.196778 0.000000 0.000000 0.000000 0.000000 0.000000 0.000000 0.236250 -1.312625 -0.134122 -0.239385 1.312057 0.139570 6.551183 -6.108349 3.150942 -8.370770 3.747862 -1.974002 0.000000 0.000000 0.000000 0.000000 0.000000 0.000000 -0.119037 -0.235496 3.087983 -0.000000 0.000000 0.000000 2.529010 20.698292 -9.344542 0.000000 0.000000 0.000000 -0.119037 -0.235496 3.087983 0.983519 0.433083 0.278039 -1.065683 -6.288623 -4.718795 0.000000 0.000000 0.000000
57.027936 70.717252 394.390099 0.144697 0.166459 -3.166473 -0.135282 -0.174197 3.166058 -0.000000 0.000000 0.000000 -0.000000 0.000000 0.000000 0.000000 0.000000 0.000000 -0.000000 0.000000 0.000000 2.578626 -0.771198 -0.840001 -3.532056 -15.088935 -3.828367 6.275779 9.183103 1.369341 0.000000 0.000000 0.000000 0.000000 0.000000 0.000000 0.475216 -1.254185 -0.119563 -0.477946 1.253147 0.129991 5.877236 -5.258519 2.611057 -8.458219 2.820307 -1.276708 0.000000 0.000000 0.000000 0.000000 0.000000 0.000000 -0.135282 -0.174197 3.166058 -0.000000 0.000000 0.000000 -0.773141 15.779908 -4.886558 0.000000 0.000000 0.000000 -0.135282 -0.174197 3.166058 1.015524 0.582187 0.302810 -1.895967 -5.616822 -3.041049 0.000000 0.000000 0.000000
57.017999 70.725312 394.422521 0.201833 0.121220 -3.182650 -0.194792 -0.132238 3.182212 -0.000000 0.000000 0.000000 -0.000000 0.000000 0.000000 0.000000 0.000000 0.000000 -0.000000 0.000000 0.000000 2.281328 -0.702805 -0.744529 -3.403086 -14.061859 -3.540386 8.224124 6.932604 0.257278 0.000000 0.000000 0.000000 0.000000 0.000000 0.000000 0.762276 -1.198049 -0.103835 -0.764612 1.196559 0.119789 5.100519 -2.875061 0.976241 -8.692984 0.075287 0.331762 0.000000 0.000000 0.000000 0.000000 0.000000 0.000000 -0.194792 -0.132238 3.182212 -0.000000 0.000000 0.000000 0.082637 12.663661 -4.614526 0.000000 0.000000 0.000000 -0.194792 -0.132238 3.182212 0.890109 0.973101 0.320840 -4.689681 -4.739221 1.803130 0.000000 0.000000 0.000000
56.982377 70.730284 394.468434 0.257844 0.083410 -3.242000 -0.252715 -0.097858 3.241597 -0.000000 0.000000 0.000000 -0.000000 0.000000 0.000000 0.000000 0.000000 0.000000 -0.000000 0.000000 0.000000 2.128584 -0.803704 -0.694189 -3.969151 -13.996718 -3.452073 9.410320 6.734293 -0.285163 0.000000 0.000000 0.000000 0.000000 0.000000 0.000000 0.994749 -1.027502 -0.078830 -0.996322 1.025977 0.096670 4.924180 -2.223812 0.533810 -10.517144 0.479388 1.858308 0.000000 0.000000 0.000000 0.000000 0.000000 0.000000 -0.252715 -0.097858 3.241597 0.269219 -0.768102 0.044173 -0.279434 5.637705 -1.864152 0.000000 0.000000 0.000000 -0.252715 -0.097858 3.241597 0.695980 1.475572 0.338137 -3.967528 -5.453675 0.865937 0.000000 0.000000 0.000000
56.955147 70.735113 394.513254 0.355838 0.049173 -3.288602 -0.352431 -0.069504 3.288235 -0.000000 0.000000 0.000000 -0.000000 0.000000 0.000000 0.000000 0.000000 0.000000 -0.000000 0.000000 0.000000 2.144955 -1.040694 -0.697413 -4.221343 -12.376520 -2.904472 9.674379 6.609854 -0.707081 0.000000 0.000000 0.000000 0.000000 0.000000 0.000000 1.141531 -0.748038 -0.046484 -0.367556 0.467442 -0.206435 4.007815 -0.823545 -0.000582 -9.164615 -0.557056 1.920455 0.000000 0.000000 0.000000 0.000000 0.000000 0.000000 -0.352431 -0.069504 3.288235 0.423540 -0.717335 0.046273 -0.095703 1.432763 -0.589544 0.000000 0.000000 0.000000 0.474926 0.006456 3.441388 -0.339690 1.609283 0.159345 -7.036476 -7.331752 3.960344 0.000000 0.000000 0.000000
56.930615 70.728403 394.574326 0.506367 0.029951 -3.336501 -0.503765 -0.059369 3.336108 -0.000000 0.000000 0.000000 -0.000000 0.000000 0.000000 0.000000 0.000000 0.000000 -0.000000 0.000000 0.000000 2.262007 -1.194017 -0.733538 -4.201174 -11.471863 -2.627359 9.084127 7.437490 -0.657050 0.000000 0.000000 0.000000 0.000000 0.000000 0.000000 1.163098 -0.482248 -0.019700 -0.360309 0.258103 -0.250792 3.035074 -1.104292 0.379774 -8.410529 -1.955417 1.250235 0.000000 0.000000 0.000000 0.000000 0.000000 0.000000 -1.143872 0.454554 3.227136 1.150241 -1.194877 0.165351 -0.538196 0.647265 -0.039988 0.000000 0.000000 0.000000 0.549551 -0.061577 3.523816 -0.775700 1.764791 0.086377 -9.015560 -9.041612 5.739647 0.000000 0.000000 0.000000
56.902630 70.715714 394.589765 0.702414 0.040537 -3.342180 -0.698857 -0.081414 3.341435 0.839894 -0.025675 0.061130 -0.673227 0.812660 -0.186148 0.000000 0.000000 0.000000 -0.839866 0.026568 -0.060747 2.564854 -1.377059 -0.828270 -4.625381 -9.330271 -1.813749 9.486268 4.772951 -1.076539 0.000000 0.000000 0.000000 0.000000 0.000000 0.000000 0.153881 -0.062561 -0.046306 -0.067630 -0.097517 -0.337168 0.722259 1.452820 -0.895897 -4.653405 -6.157847 1.320355 0.000000 0.000000 0.000000 0.000000 0.000000 0.000000 -1.377545 0.479980 3.222202 1.261612 -1.185166 0.176590 -4.418460 -3.870744 4.774248 0.000000 0.000000 0.000000 0.592282 -0.118391 3.569690 -1.261834 1.663626 -0.025836 -10.071573 -11.092271 5.869736 0.000000 0.000000 0.000000
56.858750 70.689080 394.611098 0.881066 0.045294 -3.366439 0.100678 0.010897 3.397499 0.060681 -0.069722 0.045081 -0.960400 1.027921 -0.233606 0.000000 0.000000 0.000000 -1.042902 0.020810 -0.075647 2.952232 -1.474768 -0.950238 -5.095157 -9.583020 -1.756670 8.868703 6.247790 -0.814406 0.000000 0.000000 0.000000 0.000000 0.000000 0.000000 -0.189919 0.360457 -0.021188 0.167936 -0.482549 -0.415106 -1.650630 1.397660 -0.329204 -2.429896 -7.500833 0.515434 0.000000 0.000000 0.000000 0.000000 0.000000 0.000000 -1.540692 0.498463 3.238269 1.271783 -1.254395 0.187821 -6.646185 -1.953550 5.768180 0.000000 0.000000 0.000000 0.675377 -0.130142 3.640917 -1.790171 1.418705 -0.163128 -10.131784 -12.877347 4.678668 0.000000 0.000000 0.000000
56.791765 70.693335 394.572672 1.047304 0.094827 -3.451009 0.110844 0.008896 3.487503 0.043200 -0.067243 0.051512 -0.957981 1.115722 -0.271390 0.000000 0.000000 0.000000 -1.201769 -0.027972 -0.088361 3.360021 -1.631936 -1.077011 -5.201041 -8.623771 -1.406725 7.275473 4.096770 -0.123054 0.000000 0.000000 0.000000 0.000000 0.000000 0.000000 -0.480614 0.697267 0.003421 0.367964 -0.790853 -0.480750 -4.279819 2.514740 -0.477600 -1.774495 -11.052070 0.825895 0.000000 0.000000 0.000000 0.000000 0.000000 0.000000 -1.039700 -0.157679 3.448712 0.586767 -0.618035 0.045973 -8.327141 3.199948 5.279121 0.000000 0.000000 0.000000 0.871412 -0.146902 3.793033 -2.198961 1.488168 -0.229839 -9.292846 -13.043245 3.402664 0.000000 0.000000 0.000000
